<svg width="60" height="60" viewBox="0 0 60 60" fill="none" xmlns="http://www.w3.org/2000/svg">
<path d="M30 51.875C29.5027 51.875 29.0258 51.6775 28.6742 51.3258C28.3225 50.9742 28.125 50.4973 28.125 50C28.125 49.5027 28.3225 49.0258 28.6742 48.6742C29.0258 48.3225 29.5027 48.125 30 48.125C34.807 48.125 39.4172 46.2154 42.8163 42.8163C46.2154 39.4172 48.125 34.807 48.125 30C48.125 25.193 46.2154 20.5828 42.8163 17.1837C39.4172 13.7846 34.807 11.875 30 11.875C29.5027 11.875 29.0258 11.6775 28.6742 11.3258C28.3225 10.9742 28.125 10.4973 28.125 10C28.125 9.50272 28.3225 9.0258 28.6742 8.67417C29.0258 8.32254 29.5027 8.125 30 8.125C35.8016 8.125 41.3656 10.4297 45.468 14.532C49.5703 18.6344 51.875 24.1984 51.875 30C51.875 35.8016 49.5703 41.3656 45.468 45.468C41.3656 49.5703 35.8016 51.875 30 51.875Z" fill="white"/>
<path d="M18.825 36.1749C19.1562 36.5303 19.3365 37.0004 19.3279 37.4862C19.3194 37.972 19.1226 38.4354 18.7791 38.7789C18.4355 39.1225 17.9721 39.3193 17.4863 39.3278C17.0006 39.3364 16.5304 39.1561 16.175 38.8249L8.675 31.3249C8.32387 30.9733 8.12665 30.4968 8.12665 29.9999C8.12665 29.503 8.32387 29.0265 8.675 28.6749L16.175 21.1749C16.3467 20.9907 16.5537 20.8429 16.7837 20.7404C17.0137 20.638 17.2619 20.5829 17.5137 20.5784C17.7655 20.574 18.0155 20.6203 18.249 20.7146C18.4825 20.8089 18.6945 20.9493 18.8726 21.1273C19.0506 21.3053 19.191 21.5174 19.2853 21.7509C19.3796 21.9844 19.4259 22.2344 19.4215 22.4862C19.417 22.738 19.3619 22.9862 19.2595 23.2162C19.157 23.4462 19.0092 23.6532 18.825 23.8249L14.525 28.1249L35 28.1249C35.4973 28.1249 35.9742 28.3224 36.3258 28.6741C36.6775 29.0257 36.875 29.5026 36.875 29.9999C36.875 30.4972 36.6775 30.9741 36.3258 31.3257C35.9742 31.6773 35.4973 31.8749 35 31.8749L14.525 31.8749L18.825 36.1749Z" fill="white"/>
</svg>
