<svg width="60" height="60" viewBox="0 0 60 60" fill="none" xmlns="http://www.w3.org/2000/svg">
<path d="M54 31.4973C54.0077 36.1633 52.6201 40.725 50.0154 44.5961C47.8674 47.8002 44.9631 50.4256 41.5593 52.2402C38.1555 54.0548 34.3571 55.0027 30.5 55C26.6428 55.0027 22.8444 54.0548 19.4406 52.2402C16.0369 50.4256 13.1326 47.8002 10.9846 44.5961C8.93935 41.5471 7.63686 38.0612 7.18149 34.418C6.72612 30.7748 7.13054 27.0755 8.36234 23.6168C9.59414 20.158 11.619 17.036 14.2747 14.501C16.9304 11.966 20.143 10.0886 23.655 9.01911C27.1669 7.94966 30.8806 7.71799 34.4982 8.34267C38.1159 8.96734 41.5368 10.431 44.4869 12.6163C47.437 14.8016 49.8342 17.6477 51.4862 20.9265C53.1382 24.2054 53.9991 27.8257 54 31.4973Z" stroke="white" stroke-width="1.5"/>
<path d="M33.1252 22.5C33.1252 24.225 31.7252 25.625 30.0002 25.625V29.375C31.8236 29.375 33.5722 28.6507 34.8616 27.3614C36.1509 26.072 36.8752 24.3234 36.8752 22.5H33.1252ZM30.0002 25.625C28.2752 25.625 26.8752 24.225 26.8752 22.5H23.1252C23.1252 24.3234 23.8495 26.072 25.1388 27.3614C26.4281 28.6507 28.1768 29.375 30.0002 29.375V25.625ZM26.8752 22.5C26.8752 20.775 28.2752 19.375 30.0002 19.375V15.625C28.1768 15.625 26.4281 16.3493 25.1388 17.6386C23.8495 18.928 23.1252 20.6766 23.1252 22.5H26.8752ZM30.0002 19.375C31.7252 19.375 33.1252 20.775 33.1252 22.5H36.8752C36.8752 20.6766 36.1509 18.928 34.8616 17.6386C33.5722 16.3493 31.8236 15.625 30.0002 15.625V19.375ZM12.9152 44.64L11.1177 44.105L10.8252 45.085L11.4927 45.86L12.9152 44.64ZM47.0852 44.64L48.5102 45.8625L49.1752 45.0875L48.8827 44.105L47.0852 44.64ZM22.5002 39.375H37.5002V35.625H22.5002V39.375ZM22.5002 35.625C19.9429 35.6251 17.454 36.4504 15.4033 37.9782C13.3526 39.506 11.8496 41.6547 11.1177 44.105L14.7127 45.175C15.214 43.4991 16.2425 42.0296 17.6455 40.9847C19.0484 39.9398 20.7509 39.3753 22.5002 39.375V35.625ZM30.0002 50.625C27.0237 50.6284 24.082 49.986 21.3779 48.7421C18.6738 47.4982 16.2718 45.6824 14.3377 43.42L11.4927 45.86C13.7788 48.5324 16.6173 50.6799 19.8124 52.1495C23.0075 53.6191 26.4833 54.3783 30.0002 54.375V50.625ZM37.5002 39.375C41.1752 39.375 44.2877 41.82 45.2877 45.175L48.8827 44.105C48.1508 41.6547 46.6478 39.506 44.5971 37.9782C42.5464 36.4504 40.0574 35.6251 37.5002 35.625V39.375ZM45.6627 43.42C43.7285 45.6824 41.3266 47.4982 38.6225 48.7421C35.9184 49.986 32.9767 50.6284 30.0002 50.625V54.375C33.5171 54.3783 36.9929 53.6191 40.188 52.1495C43.3831 50.6799 46.224 48.5349 48.5102 45.8625L45.6627 43.42Z" fill="white"/>
</svg>
