<svg width="80" height="80" viewBox="0 0 80 80" fill="none" xmlns="http://www.w3.org/2000/svg">
<path d="M58.965 37.4993H12.5C11.837 37.4993 11.2011 37.7626 10.7322 38.2315C10.2634 38.7003 10 39.3362 10 39.9993C10 40.6623 10.2634 41.2982 10.7322 41.767C11.2011 42.2359 11.837 42.4993 12.5 42.4993H58.965L40.73 60.7292C40.2606 61.1987 39.9968 61.8354 39.9968 62.4993C39.9968 63.1631 40.2606 63.7998 40.73 64.2693C41.1994 64.7387 41.8361 65.0024 42.5 65.0024C43.1639 65.0024 43.8006 64.7387 44.27 64.2693L66.77 41.7693C67.0028 41.537 67.1875 41.2611 67.3136 40.9574C67.4396 40.6537 67.5045 40.3281 67.5045 39.9993C67.5045 39.6704 67.4396 39.3448 67.3136 39.0411C67.1875 38.7374 67.0028 38.4615 66.77 38.2292L44.27 15.7293C43.8006 15.2598 43.1639 14.9961 42.5 14.9961C41.8361 14.9961 41.1994 15.2598 40.73 15.7293C40.2606 16.1987 39.9968 16.8354 39.9968 17.4993C39.9968 18.1631 40.2606 18.7998 40.73 19.2693L58.965 37.4993Z" fill="#F9991A"/>
</svg>
