<svg width="32" height="32" viewBox="0 0 32 32" fill="none" xmlns="http://www.w3.org/2000/svg">
<path d="M17.3337 8H14.667V9.33333C14.667 9.68696 14.8075 10.0261 15.0575 10.2761C15.3076 10.5262 15.6467 10.6667 16.0003 10.6667C16.3539 10.6667 16.6931 10.5262 16.9431 10.2761C17.1932 10.0261 17.3337 9.68696 17.3337 9.33333V8Z" fill="#FFD600"/>
<path fill-rule="evenodd" clip-rule="evenodd" d="M8 2.66797V5.33464H9.33333V9.33464C9.33333 11.1027 10.0357 12.7984 11.286 14.0487C12.5362 15.2989 14.2319 16.0013 16 16.0013C14.2319 16.0013 12.5362 16.7037 11.286 17.9539C10.0357 19.2042 9.33333 20.8999 9.33333 22.668V26.668H8V29.3346H24V26.668H22.6667V22.668C22.6667 20.8999 21.9643 19.2042 20.714 17.9539C19.4638 16.7037 17.7681 16.0013 16 16.0013C16.8755 16.0013 17.7424 15.8289 18.5512 15.4938C19.3601 15.1588 20.095 14.6677 20.714 14.0487C21.3331 13.4296 21.8242 12.6947 22.1592 11.8859C22.4942 11.077 22.6667 10.2101 22.6667 9.33464V5.33464H24V2.66797H8ZM12 5.33464H20V9.33464C20 10.3955 19.5786 11.4129 18.8284 12.1631C18.0783 12.9132 17.0609 13.3346 16 13.3346C14.9391 13.3346 13.9217 12.9132 13.1716 12.1631C12.4214 11.4129 12 10.3955 12 9.33464V5.33464ZM12 22.668V26.668H20V22.668C20 21.6071 19.5786 20.5897 18.8284 19.8395C18.0783 19.0894 17.0609 18.668 16 18.668C14.9391 18.668 13.9217 19.0894 13.1716 19.8395C12.4214 20.5897 12 21.6071 12 22.668Z" fill="#FFD600"/>
</svg>
